<svg width="287" height="14" viewBox="0 0 287 14" fill="none" xmlns="http://www.w3.org/2000/svg">
<path d="M6.59853 5.83831C8.83774 5.83831 11.1836 5.77873 13.4228 5.71916C14.3825 5.71916 15.2355 5.65958 16.1951 5.65958C20.2471 5.54043 24.299 5.42128 28.3509 5.30214C33.2558 5.18299 38.0541 5.00426 42.9591 4.88512C49.8899 4.64682 56.8208 4.46809 63.7517 4.22979C65.3512 4.17022 66.9506 4.17022 68.55 4.11064C72.602 3.9915 76.6539 3.87235 80.7058 3.81277C84.7577 3.69362 88.8096 3.57447 92.8615 3.5149C94.4609 3.45532 96.0604 3.39575 97.6598 3.39575C104.058 3.2766 110.562 3.15745 116.96 3.0383C120.905 2.97873 124.85 2.91916 128.902 2.80001C130.502 2.80001 131.994 2.74043 133.594 2.74043C139.778 2.68085 146.069 2.62128 152.254 2.56171C158.438 2.50213 164.516 2.44256 170.701 2.38298C172.3 2.38298 173.9 2.38298 175.606 2.38298C179.658 2.38298 183.603 2.38298 187.655 2.38298C193.946 2.38298 200.13 2.38298 206.422 2.32341C208.447 2.32341 210.473 2.32341 212.499 2.32341C216.765 2.32341 221.03 2.32341 225.295 2.32341C225.615 2.32341 226.041 2.32341 226.361 2.32341C216.765 2.38298 207.061 2.44256 197.465 2.56171C193.413 2.62128 189.467 2.62128 185.416 2.68085C183.71 2.68085 181.897 2.68085 180.191 2.74043C174.326 2.8 168.568 2.91915 162.704 2.97873C155.986 3.09788 149.268 3.15745 142.551 3.2766C141.378 3.2766 140.311 3.33617 139.139 3.33617C135.513 3.45532 131.994 3.5149 128.369 3.63405C121.118 3.81277 113.867 3.99149 106.617 4.17022C105.55 4.17022 104.484 4.2298 103.418 4.28937C99.899 4.40852 96.2736 4.58724 92.7549 4.70639C86.3571 4.94469 80.066 5.18298 73.6683 5.42128C71.9622 5.48086 70.1495 5.60001 68.4434 5.65958C64.3915 5.83831 60.3396 6.01703 56.2877 6.25533C51.1695 6.49363 45.9447 6.73193 40.8265 6.97022C33.6823 7.32767 26.4315 7.68512 19.2874 8.04256C17.5813 8.10214 15.8753 8.22129 14.0626 8.28086C10.9703 8.45959 7.87808 8.63831 4.78583 8.81703C4.46594 8.81703 4.14606 8.93618 4.14606 9.17448C4.14606 9.3532 4.46594 9.53193 4.78583 9.53193C5.95875 9.53193 7.02504 9.5915 8.19796 9.5915C8.09133 9.77022 7.9847 9.94895 7.9847 10.1277C7.9847 10.783 8.94437 11.3787 10.2239 11.3787C19.0741 11.0809 27.8177 10.7234 36.6679 10.4851C44.3452 10.3064 52.0225 10.0681 59.6998 9.88937C68.1235 9.65108 76.6539 9.41278 85.0776 9.23406C87.7433 9.17448 90.409 9.1149 93.0748 8.99576C93.8212 8.99576 94.5676 8.93618 95.4206 8.93618C109.069 8.75746 122.718 8.51916 136.366 8.34044C143.617 8.22129 150.974 8.10214 158.225 8.04256C160.891 7.98299 163.45 7.98299 166.116 7.92342C180.084 7.80427 194.053 7.68512 208.021 7.56597C213.992 7.5064 219.963 7.44682 225.935 7.38724C231.053 7.32767 236.171 7.32767 241.289 7.20852C245.554 7.14894 249.713 7.0298 253.978 6.97022C256.111 6.91065 258.243 6.91065 260.269 6.85107C265.068 6.67235 269.866 6.49362 274.664 6.3149C274.344 6.5532 274.344 6.91065 274.451 7.14895C274.558 7.44682 274.877 7.68512 275.411 7.80426C275.837 7.92341 276.477 8.04257 276.903 7.92342C277.97 7.68512 279.036 7.44682 279.996 7.20852C279.996 7.20852 279.996 7.20852 279.889 7.20852C279.996 7.20852 279.996 7.14895 280.102 7.14895C280.209 7.14895 280.316 7.08937 280.316 7.08937H280.209C280.742 6.97022 281.275 6.85108 281.915 6.67235C282.448 6.5532 283.088 6.37448 283.621 6.25533C284.261 6.0766 284.794 5.89788 285.434 5.71916C286.073 5.54043 286.5 5.06384 286.5 4.64682C286.5 4.40852 286.393 4.2298 286.18 3.9915C285.967 3.7532 285.434 3.45533 284.901 3.39575C284.367 3.33618 283.834 3.2766 283.301 3.2766C283.195 3.2766 283.088 3.2766 282.981 3.2766C282.661 3.2766 282.235 3.2766 281.915 3.33617C281.062 3.39575 280.316 3.45533 279.462 3.45533C278.823 3.45533 278.183 3.5149 277.437 3.5149C275.624 3.57447 273.918 3.63405 272.105 3.7532C271.679 3.7532 271.145 3.81277 270.719 3.81277C270.932 3.69362 271.039 3.57447 271.039 3.45533C271.145 3.33618 271.145 3.21703 271.145 3.09788C271.145 3.0383 271.145 2.91915 271.252 2.85958C271.252 2.74043 271.252 2.62128 271.145 2.56171C271.145 2.56171 271.252 2.56171 271.252 2.50213C271.572 2.38298 271.892 2.26383 272.105 2.02554C272.318 1.84681 272.425 1.60851 272.425 1.37022C272.425 1.13192 272.318 0.953195 272.105 0.714897C271.998 0.655323 271.892 0.536173 271.785 0.476598C271.465 0.297875 271.145 0.2383 270.826 0.178725C270.186 0.0595764 269.439 0 268.693 0C268.053 0 267.52 0 266.88 0C266.027 0 265.174 0 264.321 0C263.148 0 261.869 0 260.696 0C257.497 0 254.298 0 251.099 0C248.114 0 245.021 0 242.036 0C239.263 0 236.598 0 233.825 0C222.842 0 211.966 0.0595773 200.983 0.119152C192.773 0.178726 184.563 0.238299 176.352 0.238299C172.727 0.238299 168.995 0.297872 165.369 0.357446C157.159 0.476595 148.948 0.53617 140.738 0.655319C138.392 0.655319 136.046 0.714897 133.7 0.714897C132.314 0.714897 131.035 0.774471 129.649 0.774471C121.545 0.953195 113.441 1.13192 105.337 1.31064C102.885 1.37022 100.432 1.42979 97.8731 1.48936C96.4869 1.48936 95.1007 1.54894 93.7145 1.60852C85.6107 1.84681 77.6135 2.08511 69.5097 2.32341C65.3512 2.44256 61.1926 2.5617 57.0341 2.74043C49.89 2.97873 42.7458 3.21703 35.7083 3.5149C29.5238 3.7532 23.3393 3.93192 17.1548 4.11064C16.1951 4.17022 15.2355 4.17022 14.1692 4.22979C12.5698 4.28937 10.9703 4.28937 9.37088 4.34894C7.98471 4.40852 6.59853 4.40852 5.10572 4.40852C4.99909 4.22979 4.57257 4.05107 4.25269 4.05107C3.29302 4.11065 2.43999 4.17022 1.48033 4.22979C1.05381 4.22979 0.627295 4.34894 0.520666 4.64682C0.414037 4.94469 0.733924 5.24256 1.16044 5.30214C1.58696 5.36171 1.90684 5.42129 2.33336 5.48086C2.75988 5.54044 3.07977 5.54043 3.50628 5.54043C4.57257 5.77873 5.53224 5.77873 6.59853 5.83831ZM256.111 3.87235C257.39 3.87235 258.776 3.87235 260.056 3.87235C260.163 4.05107 260.376 4.17022 260.589 4.28937C260.056 4.28937 259.523 4.34894 259.096 4.34894C258.137 4.34894 257.177 4.40852 256.217 4.40852C251.952 4.46809 247.794 4.58724 243.528 4.64682C241.609 4.70639 239.69 4.76596 237.77 4.76596C234.785 4.76596 231.693 4.82554 228.707 4.82554C221.776 4.88511 214.952 4.94469 208.021 5.00426C194.586 5.12341 181.257 5.24256 167.822 5.36171C158.225 5.42128 148.629 5.60001 139.032 5.77873C124.637 6.01703 110.135 6.19575 95.7405 6.43405C92.8615 6.49363 89.9825 6.5532 87.1035 6.67235C78.8931 6.91065 70.6826 7.08937 62.4722 7.32767C54.475 7.56597 46.3712 7.74469 38.374 7.98299C37.6276 7.98299 36.8812 8.04256 36.1348 8.04256C38.2674 7.92341 40.5066 7.86384 42.6392 7.74469C50.2098 7.44682 57.7805 7.08937 65.3512 6.7915C68.0169 6.67235 70.6826 6.5532 73.2417 6.43405C74.6279 6.37448 76.0141 6.3149 77.2936 6.3149C85.1842 6.0766 93.0748 5.77873 100.965 5.54043C102.458 5.48086 104.058 5.42128 105.55 5.36171C107.79 5.30213 110.029 5.24256 112.161 5.24256C120.265 5.06384 128.369 4.88511 136.473 4.70639C138.286 4.64682 140.098 4.64682 141.804 4.58724C142.231 4.58724 142.764 4.58724 143.19 4.58724C144.47 4.58724 145.75 4.58724 146.922 4.52766C155.026 4.40852 163.237 4.34894 171.341 4.22979C175.073 4.17022 178.805 4.11064 182.537 4.11064C194.586 4.05107 206.741 3.99149 218.79 3.93192C231.479 3.93192 243.848 3.93192 256.111 3.87235Z" fill="#26A4FF"/>
<path d="M22.6984 14C23.0517 14 23.3381 13.84 23.3381 13.6426C23.3381 13.4452 23.0517 13.2852 22.6984 13.2852C22.345 13.2852 22.0586 13.4452 22.0586 13.6426C22.0586 13.84 22.345 14 22.6984 14Z" fill="#26A4FF"/>
</svg>
